<svg id="Layer_1" data-name="Layer 1" xmlns="http://www.w3.org/2000/svg" viewBox="0 0 24 24"><defs><style>.cls-1{fill:#d61d4d;}.cls-2{fill:#fff;}</style></defs><title>Untitled-1</title><circle class="cls-1" cx="12.47" cy="12" r="10.89"/><path class="cls-2" d="M8.31,9.48,7,8.39V6.84L8.78,9.05c.18.19.21.43.07.55S8.56,9.62,8.31,9.48Z"/><path class="cls-2" d="M12.43,13.31C10,16.57,7.76,19.53,7.76,19.53a.27.27,0,0,1,0,.09H7V8.8l.89,1a2,2,0,0,0,2,.73Z"/><path class="cls-2" d="M9.1,8.75,7,6.7V4.38h5.1a7.69,7.69,0,0,1,5.58,1.9c-1.15,1.57-3,4-4.79,6.41L10.44,10a2,2,0,0,0-.56-2L7.41,5.25,9.58,8.32c.2.35.2.44.07.57S9.28,8.94,9.1,8.75Z"/><path class="cls-2" d="M13.24,14.18,17,18.29a8.2,8.2,0,0,1-4.87,1.33h-3c.45-.51.86-1.07,1.27-1.6.73-.95,1.42-1.89,2.14-2.84Z"/><path class="cls-2" d="M19.78,12a7.59,7.59,0,0,1-2,5.66.78.78,0,0,1-.21.17L13.7,13.56a1.82,1.82,0,0,0,.2-.29.75.75,0,0,0,.44.2.78.78,0,0,0,.66-.14l.47-.43a9.21,9.21,0,0,0,1.1-1.39,14.36,14.36,0,0,0,1.89-4.33A8,8,0,0,1,19.78,12Z"/></svg>